<svg width="24" height="24" viewBox="0 0 24 24" fill="none" xmlns="http://www.w3.org/2000/svg">
<g clip-path="url(#clip0_5_31)">
<path d="M12.01 3C14.62 3 16.9 4.86 17.41 7.43L17.71 8.93L19.23 9.04C20.79 9.15 22.01 10.45 22.01 12C22.01 13.65 20.66 15 19.01 15H6.01001C3.80001 15 2.01001 13.21 2.01001 11C2.01001 8.95 3.54001 7.24 5.57001 7.03L6.64001 6.92L7.14001 5.97C8.08001 4.14 9.95001 3 12.01 3ZM12.01 1C9.12001 1 6.60001 2.64 5.35001 5.04C2.35001 5.36 0.0100098 7.91 0.0100098 11C0.0100098 14.31 2.70001 17 6.01001 17H19.01C21.77 17 24.01 14.76 24.01 12C24.01 9.36 21.96 7.22 19.37 7.04C18.68 3.59 15.65 1 12.01 1Z" fill="white"/>
<line x1="12.366" y1="18.7679" x2="10.366" y2="22.232" stroke="white" stroke-width="2"/>
<line x1="17.866" y1="18.7679" x2="15.866" y2="22.232" stroke="white" stroke-width="2"/>
<line x1="6.86603" y1="18.7679" x2="4.86602" y2="22.232" stroke="white" stroke-width="2"/>
</g>
<defs>
<clipPath id="clip0_5_31">
<rect width="24" height="24" fill="white"/>
</clipPath>
</defs>
</svg>
