<svg width="24" height="24" viewBox="0 0 24 24" fill="none" xmlns="http://www.w3.org/2000/svg">
<path fill-rule="evenodd" clip-rule="evenodd" d="M12 4.39632V9.85091H8.72722V4.39632C8.72722 3.49258 9.45985 2.75995 10.3636 2.75995C11.2673 2.75995 12 3.49258 12 4.39632ZM7.6363 14.0808C6.63874 14.8805 6 16.1093 6 17.4873C6 19.8973 7.95368 21.8509 10.3637 21.8509C12.7736 21.8509 14.7273 19.8973 14.7273 17.4873C14.7273 16.1092 14.0885 14.8803 13.0909 14.0806V4.39632C13.0909 2.89008 11.8698 1.66904 10.3636 1.66904C8.85735 1.66904 7.6363 2.89008 7.6363 4.39632V14.0808ZM15.7274 4.39633H19.0002V3.30542H15.7274V4.39633ZM19.0002 6.57813H15.7274V5.48721H19.0002V6.57813ZM15.7274 8.75998H19.0002V7.66907H15.7274V8.75998ZM19.0002 10.9418H15.7274V9.85092H19.0002V10.9418ZM15.7274 13.1236H19.0002V12.0327H15.7274V13.1236Z" fill="white"/>
</svg>
